# xmcd
#
# Track frame offsets:
#	150
#	19442
#	46621
#	72451
#	100942
#	128089
#	160673
#	195287
#	225939
#	256069
#	272702
#	302597
#
# Disc length: 4253 seconds
#
# Revision: 4
# Processed by: cddbd v1.5.2PL0 Copyright (c) Steve Scherf et al.
# Submitted via: EasyCDDAExtractor 15.2.5.1
#
DISCID=8f109b0c
DTITLE=House 2005 CD2
DYEAR=2004
DGENRE=Dance
TTITLE0=Tom Jones feat. Funkstar Deluxe - She's a lady
TTITLE1=Chris Crime and Mike Canis pres. - Weather (Do you love me?)
TTITLE2=House 2005 CD2DJ Rob Terry feat. Morris  - Sweet Harmony
TTITLE3=Alison Diaz  - Papacito Rico (Alternative mix)
TTITLE4=Milk and Sugar - Shut up (Club mix)
TTITLE5=Raw Deal - Party Time
TTITLE6=Christian Alvarez - Intergalactic Voyager (Stonebridge Remix)
TTITLE7=Sueno Soul Project feat. Lelani - Me Getaway (Toby K's Smokedog Dirty 
TTITLE7=Disco mix)
TTITLE8=Arnold Jarvis - Always be right There (Oscar P's Vocal Edit
TTITLE9=Miguel Nogueira - Exchange E.P. (Eternidad)
TTITLE10=Henderson  - Rain (Prince Gaudy Vocal mix)
TTITLE11=Mreux - But Funk is Not Dead E.P. (Mental Funk)
EXTD=
EXTT0=
EXTT1=
EXTT2=
EXTT3=
EXTT4=
EXTT5=
EXTT6=
EXTT7=
EXTT8=
EXTT9=
EXTT10=
EXTT11=
PLAYORDER=
